#N canvas 718 378 222 203 10;
#N canvas 448 46 676 573 ui 0;
#X obj 229 222 pack f f f;
#X obj 208 271 list;
#X obj 208 335 packOSC;
#X msg 208 305 send /fft \$1 \$2 \$3;
#N canvas 644 81 277 499 keyPoint 0;
#X obj 25 39 env~;
#X floatatom 25 61 5 0 0 0 - - -, f 5;
#X obj 26 127 / 100;
#X floatatom 26 149 5 0 0 0 - - -, f 5;
#X obj 26 323 sel 1;
#X obj 26 348 random 100;
#X obj 26 373 / 100;
#X floatatom 26 398 5 0 0 0 - - -, f 5;
#X obj 26 171 t f f;
#X obj 26 202 -;
#X obj 26 227 abs;
#X floatatom 26 252 5 0 0 0 - - -, f 5;
#X obj 25 10 inlet~;
#X obj 26 420 outlet;
#X obj 113 176 > 70;
#X obj 25 80 t f f;
#X obj 26 296 spigot;
#X obj 26 274 > 0.04;
#X connect 0 0 1 0;
#X connect 1 0 15 0;
#X connect 2 0 3 0;
#X connect 3 0 8 0;
#X connect 4 0 5 0;
#X connect 5 0 6 0;
#X connect 6 0 7 0;
#X connect 7 0 13 0;
#X connect 8 0 9 1;
#X connect 8 1 9 0;
#X connect 9 0 10 0;
#X connect 10 0 11 0;
#X connect 11 0 17 0;
#X connect 12 0 0 0;
#X connect 14 0 16 1;
#X connect 15 0 2 0;
#X connect 15 1 14 0;
#X connect 16 0 4 0;
#X connect 17 0 16 0;
#X restore 228 89 pd keyPoint;
#X floatatom 228 114 5 0 0 0 - - -, f 5;
#N canvas 0 50 430 711 keyPoint 0;
#X obj 25 39 env~;
#X floatatom 25 61 5 0 0 0 - - -, f 5;
#X obj 25 88 / 100;
#X floatatom 25 110 5 0 0 0 - - -, f 5;
#X obj 25 263 sel 1;
#X obj 25 288 random 100;
#X obj 25 313 / 100;
#X floatatom 25 338 5 0 0 0 - - -, f 5;
#X obj 25 132 t f f;
#X obj 25 163 -;
#X obj 25 188 abs;
#X floatatom 25 213 5 0 0 0 - - -, f 5;
#X obj 25 10 inlet~;
#X obj 25 360 outlet;
#X obj 25 235 > 0.02;
#X connect 0 0 1 0;
#X connect 1 0 2 0;
#X connect 2 0 3 0;
#X connect 3 0 8 0;
#X connect 4 0 5 0;
#X connect 5 0 6 0;
#X connect 6 0 7 0;
#X connect 7 0 13 0;
#X connect 8 0 9 1;
#X connect 8 1 9 0;
#X connect 9 0 10 0;
#X connect 10 0 11 0;
#X connect 11 0 14 0;
#X connect 12 0 0 0;
#X connect 14 0 4 0;
#X restore 330 57 pd keyPoint;
#X floatatom 330 82 5 0 0 0 - - -, f 5;
#N canvas 0 50 430 711 keyPoint 0;
#X obj 25 39 env~;
#X floatatom 25 61 5 0 0 0 - - -, f 5;
#X obj 25 126 / 100;
#X floatatom 25 148 5 0 0 0 - - -, f 5;
#X obj 27 337 sel 1;
#X obj 27 362 random 100;
#X obj 27 387 / 100;
#X floatatom 27 412 5 0 0 0 - - -, f 5;
#X obj 25 170 t f f;
#X obj 25 201 -;
#X obj 25 226 abs;
#X floatatom 25 251 5 0 0 0 - - -, f 5;
#X obj 25 10 inlet~;
#X obj 27 434 outlet;
#X obj 25 273 > 0.02;
#X obj 25 81 t f f;
#X obj 26 304 spigot;
#X obj 112 137 > 70;
#X connect 0 0 1 0;
#X connect 1 0 15 0;
#X connect 2 0 3 0;
#X connect 3 0 8 0;
#X connect 4 0 5 0;
#X connect 5 0 6 0;
#X connect 6 0 7 0;
#X connect 7 0 13 0;
#X connect 8 0 9 1;
#X connect 8 1 9 0;
#X connect 9 0 10 0;
#X connect 10 0 11 0;
#X connect 11 0 14 0;
#X connect 12 0 0 0;
#X connect 14 0 16 0;
#X connect 15 0 2 0;
#X connect 15 1 17 0;
#X connect 16 0 4 0;
#X connect 17 0 16 1;
#X restore 414 34 pd keyPoint;
#X floatatom 414 59 5 0 0 0 - - -, f 5;
#X obj 330 104 t b f;
#X obj 414 86 t b f;
#X obj 380 209 env~;
#X obj 208 244 r \$0-bb;
#X obj 330 1 hip~ 200;
#X obj 330 30 lop~ 2300;
#X obj 228 62 lop~ 150;
#X obj 380 247 / 100;
#X floatatom 380 272 5 0 0 0 - - -, f 5;
#X obj 288 370 f;
#X obj 288 341 r \$0-bbb;
#X obj 288 426 packOSC;
#X msg 288 394 send /vol \$1;
#X obj 290 248 loadbang;
#X msg 290 270 0 0 0;
#X obj 380 291 * 1;
#X obj 100 110 hsl 50 15 0 2 0 0 empty empty empty -2 -8 0 10 -262144
-1 -1 2450 1;
#X floatatom 97 130 5 0 0 0 - - -, f 5;
#X msg 97 82 1;
#X obj 97 26 loadbang;
#X floatatom 380 314 5 0 0 0 - - -, f 5;
#X msg 228 146 \$1 500;
#X obj 228 168 line;
#X msg 274 164 \$1 500;
#X obj 274 186 line;
#X msg 327 190 \$1 500;
#X obj 327 212 line;
#X obj 288 452 s allOsc;
#X obj 208 361 s allOsc;
#X obj 5 15 tgl 30 0 empty empty empty 17 7 0 10 -262144 -1 -1 0 1
;
#X obj 26 80 k_vol~;
#X obj -56 289 spigot;
#X obj 6 269 udpsend;
#X msg 6 244 disconnect;
#X obj -24 268 tgl 15 0 empty empty empty 17 7 0 10 -262144 -1 -1 0
1;
#X obj 6 194 sel 0 1;
#X obj -56 239 r allOsc;
#X obj 100 167 loadbang;
#X msg 100 189 \; pd dsp 1;
#X obj 53 299 tgl 15 0 empty empty empty 17 7 0 10 -262144 -1 -1 0
1;
#X obj 91 393 s \$0-bbb;
#X obj 53 340 t b b b;
#X obj 53 317 metro 50;
#X obj 72 367 s \$0-bb;
#X obj 420 30 hip~ 1500;
#X obj 97 54 bng 15 250 50 0 empty empty empty 17 7 0 10 -262144 -1
-1;
#X obj 131 55 bng 15 250 50 0 empty empty empty 17 7 0 10 -262144 -1
-1;
#X msg 131 83 2;
#X msg 25 221 connect localhost 9999;
#X obj 228 -15 adc~;
#X connect 0 0 1 1;
#X connect 1 0 3 0;
#X connect 2 0 38 0;
#X connect 3 0 2 0;
#X connect 4 0 5 0;
#X connect 5 0 31 0;
#X connect 6 0 7 0;
#X connect 7 0 10 0;
#X connect 8 0 9 0;
#X connect 9 0 11 0;
#X connect 10 0 5 0;
#X connect 10 1 33 0;
#X connect 11 0 5 0;
#X connect 11 1 35 0;
#X connect 12 0 17 0;
#X connect 13 0 1 0;
#X connect 14 0 15 0;
#X connect 15 0 6 0;
#X connect 16 0 4 0;
#X connect 17 0 18 0;
#X connect 18 0 25 0;
#X connect 19 0 22 0;
#X connect 20 0 19 0;
#X connect 21 0 37 0;
#X connect 22 0 21 0;
#X connect 23 0 24 0;
#X connect 24 0 1 1;
#X connect 25 0 30 0;
#X connect 26 0 27 0;
#X connect 27 0 25 1;
#X connect 28 0 26 0;
#X connect 29 0 55 0;
#X connect 30 0 19 1;
#X connect 31 0 32 0;
#X connect 32 0 0 0;
#X connect 33 0 34 0;
#X connect 34 0 0 1;
#X connect 35 0 36 0;
#X connect 36 0 0 2;
#X connect 39 0 45 0;
#X connect 39 0 49 0;
#X connect 41 0 42 0;
#X connect 42 0 44 0;
#X connect 43 0 42 0;
#X connect 44 0 41 1;
#X connect 45 0 43 0;
#X connect 45 1 58 0;
#X connect 46 0 41 0;
#X connect 47 0 48 0;
#X connect 49 0 52 0;
#X connect 51 1 53 0;
#X connect 51 2 50 0;
#X connect 52 0 51 0;
#X connect 54 0 8 0;
#X connect 55 0 28 0;
#X connect 56 0 57 0;
#X connect 57 0 26 0;
#X connect 58 0 42 0;
#X connect 59 0 12 0;
#X connect 59 0 14 0;
#X connect 59 0 16 0;
#X connect 59 0 40 0;
#X connect 59 0 54 0;
#X coords 0 -1 1 1 170 150 1 0 0;
#X restore 20 30 pd ui;
