#N canvas 526 114 294 200 10;
#N canvas 573 302 727 576 ui 0;
#N canvas 217 131 326 511 keyPoint 0;
#X obj 129 89 env~;
#X floatatom 130 197 5 0 0 0 - - -, f 5;
#X obj 126 67 inlet~;
#X obj 90 440 packOSC;
#X obj 90 466 s allOsc;
#X obj 88 299 f;
#X obj 89 263 r \$0-b;
#X msg 90 410 send /low \$1;
#X obj 88 380 expr int($f1*100)/100;
#X obj 100 345 expr pow($f1 \, 2);
#X obj 129 136 k_maxmin 2000;
#X obj 237 447 outlet;
#X floatatom 174 89 5 0 0 0 - - -, f 5;
#X obj 180 -40 r reset;
#X connect 0 0 10 0;
#X connect 0 0 12 0;
#X connect 1 0 5 1;
#X connect 2 0 0 0;
#X connect 3 0 4 0;
#X connect 5 0 9 0;
#X connect 6 0 5 0;
#X connect 7 0 3 0;
#X connect 8 0 7 0;
#X connect 8 0 11 0;
#X connect 9 0 8 0;
#X connect 10 0 1 0;
#X connect 13 0 10 1;
#X restore 275 119 pd keyPoint;
#N canvas 641 98 430 711 keyPoint 0;
#X obj 139 124 env~;
#X floatatom 139 221 5 0 0 0 - - -, f 5;
#X obj 139 95 inlet~;
#X obj 128 398 packOSC;
#X obj 128 424 s allOsc;
#X msg 128 368 send /middle \$1;
#X obj 126 277 f;
#X obj 119 244 r \$0-b;
#X obj 129 341 expr int($f1*100)/100;
#X obj 130 311 expr pow($f1 \, 2);
#X obj 141 158 k_maxmin 2000;
#X obj 227 431 outlet;
#X obj 180 -40 r reset;
#X connect 0 0 10 0;
#X connect 1 0 6 1;
#X connect 2 0 0 0;
#X connect 3 0 4 0;
#X connect 5 0 3 0;
#X connect 6 0 9 0;
#X connect 7 0 6 0;
#X connect 8 0 5 0;
#X connect 8 0 11 0;
#X connect 9 0 8 0;
#X connect 10 0 1 0;
#X connect 12 0 10 1;
#X restore 420 55 pd keyPoint;
#N canvas 655 102 356 546 keyPoint 0;
#X obj 68 119 env~;
#X floatatom 68 141 5 0 0 0 - - -, f 5;
#X obj 68 90 inlet~;
#X obj 21 424 packOSC;
#X obj 21 450 s allOsc;
#X obj 24 282 f;
#X obj 21 250 r \$0-b;
#X msg 21 394 send /high \$1;
#X obj 21 362 expr int($f1*100)/100;
#X obj 24 315 expr pow($f1 \, 2);
#X obj 54 179 k_maxmin 2000;
#X obj 180 424 outlet;
#X obj 180 -40 r reset;
#X connect 0 0 1 0;
#X connect 1 0 10 0;
#X connect 2 0 0 0;
#X connect 3 0 4 0;
#X connect 5 0 9 0;
#X connect 6 0 5 0;
#X connect 7 0 3 0;
#X connect 8 0 7 0;
#X connect 8 0 11 0;
#X connect 9 0 8 0;
#X connect 10 0 5 1;
#X connect 12 0 10 1;
#X restore 501 16 pd keyPoint;
#X obj 421 23 lop~ 2300;
#X obj 184 222 f;
#X obj 184 385 packOSC;
#X msg 184 363 send /vol \$1;
#X obj 184 411 s allOsc;
#X obj 5 15 tgl 30 0 empty empty empty 17 7 0 10 -262144 -1 -1 1 1
;
#X obj 12 79 k_vol~;
#X obj -56 289 spigot;
#X obj 6 269 udpsend;
#X msg 6 244 disconnect;
#X obj -24 268 tgl 15 0 empty empty empty 17 7 0 10 -262144 -1 -1 1
1;
#X obj 6 194 sel 0 1;
#X obj -56 239 r allOsc;
#X obj 100 167 loadbang;
#X msg 100 189 \; pd dsp 1;
#X obj 53 299 tgl 15 0 empty empty empty 17 7 0 10 -262144 -1 -1 1
1;
#X obj 91 393 s \$0-bbb;
#X obj 53 340 t b b b;
#X obj 72 367 s \$0-bb;
#X msg 25 221 connect localhost 12000;
#X obj 53 418 s \$0-b;
#X obj -72 131 t b b;
#X msg -44 153 0;
#X msg -72 174 1;
#X obj 5 -19 loadbang;
#N canvas 656 478 598 588 beat 0;
#X obj 100 -23 inlet;
#X obj 182 45 t b b b;
#X obj 183 6 spigot 1;
#X obj 309 -95 loadbang;
#X obj 182 70 delay 100;
#X msg 182 95 1;
#X msg 211 129 0;
#X obj 228 -26 tgl 15 0 empty empty empty 17 7 0 10 -262144 -1 -1 1
1;
#X obj 239 197 outlet;
#X floatatom 100 36 5 0 0 0 - - -, f 5;
#X obj 100 89 -;
#X obj 100 114 abs;
#X floatatom 100 139 5 0 0 0 - - -, f 5;
#X obj 100 58 t f f f;
#X obj 100 183 tgl 15 0 empty empty empty 17 7 0 10 -262144 -1 -1 0
1;
#X obj 100 203 change;
#X obj 100 225 sel 1;
#X obj 100 161 > 0.05;
#X floatatom 145 140 5 0 0 0 - - -, f 5;
#X obj 130 115 hsl 50 15 0.1 0.6 0 0 empty empty empty -2 -8 0 10 -262144
-1 -1 1666 1;
#X obj 299 84 loadbang;
#X msg 309 -71 400;
#X msg 297 117 0.27;
#X connect 0 0 9 0;
#X connect 1 0 4 0;
#X connect 1 1 6 0;
#X connect 1 2 8 0;
#X connect 2 0 1 0;
#X connect 3 0 21 0;
#X connect 4 0 5 0;
#X connect 5 0 7 0;
#X connect 6 0 7 0;
#X connect 7 0 2 1;
#X connect 9 0 13 0;
#X connect 10 0 11 0;
#X connect 11 0 12 0;
#X connect 12 0 17 0;
#X connect 13 0 10 1;
#X connect 13 1 10 0;
#X connect 14 0 15 0;
#X connect 15 0 16 0;
#X connect 16 0 2 0;
#X connect 17 0 14 0;
#X connect 18 0 17 1;
#X connect 19 0 18 0;
#X connect 20 0 22 0;
#X connect 21 0 4 1;
#X connect 22 0 19 0;
#X coords 0 -1 1 1 85 60 1 100 100;
#X restore 88 82 pd beat;
#X obj 88 -23 env~;
#X obj 42 15 bng 30 250 50 0 empty empty empty 17 7 0 10 -258113 -1
-1;
#X obj 471 368 packOSC;
#X obj 471 394 s allOsc;
#X msg 471 338 send /beat 1;
#X obj 282 -27 *~ 1;
#X obj 184 260 expr int($f1*100)/100;
#X obj 184 287 moses 1;
#X floatatom 184 343 5 0 0 0 - - -, f 5;
#X obj 88 18 k_maxmin 2000;
#X floatatom 199 188 5 0 0 0 - - -, f 5;
#X msg 222 315 0.99;
#X floatatom 198 80 5 0 0 0 - - -, f 5;
#X floatatom 197 104 5 0 0 0 - - -, f 5;
#X floatatom 197 128 5 0 0 0 - - -, f 5;
#X obj 272 6 lop~ 150;
#X obj 422 -24 hip~ 150;
#X obj 422 0 hip~ 150;
#X obj 272 28 lop~ 150;
#X obj 501 -36 hip~ 2300;
#X obj 501 -12 hip~ 2300;
#X obj 282 -57 adc~;
#X obj 528 251 route key;
#X obj 484 161 loadbang;
#X msg 484 196 open keyboard 0 \, 1;
#X obj 528 275 route key_44;
#X obj 528 297 sel 1;
#X obj 578 326 bng 15 250 50 0 empty empty empty 17 7 0 10 -262144
-1 -1;
#X obj 580 354 s reset;
#X obj 180 -40 r reset;
#X obj 484 220 hid;
#X obj 53 317 metro 50;
#X floatatom 245 174 5 0 0 0 - - -, f 5;
#X obj 245 214 line;
#X obj 113 318 metro 100;
#X msg 245 193 \$1 250;
#X obj 296 429 packOSC;
#X obj 296 455 s allOsc;
#X obj 296 304 expr int($f1*100)/100;
#X obj 296 331 moses 1;
#X floatatom 296 387 5 0 0 0 - - -, f 5;
#X msg 334 359 0.99;
#X floatatom 357 218 5 0 0 0 - - -, f 5;
#X obj 357 258 line;
#X obj 323 214 f;
#X floatatom 338 180 5 0 0 0 - - -, f 5;
#X msg 296 407 send /slowvol \$1;
#X obj 112 341 metro 400;
#X msg 356 237 \$1 500;
#X obj -72 107 metro 10000;
#X obj 368 99 dac~;
#X obj 219 29 tgl 15 0 empty empty empty 17 7 0 10 -262144 -1 -1 0
1;
#X obj 334 -24 *~ 0;
#X connect 0 0 41 0;
#X connect 1 0 42 0;
#X connect 2 0 43 0;
#X connect 3 0 1 0;
#X connect 4 0 61 0;
#X connect 5 0 7 0;
#X connect 6 0 5 0;
#X connect 8 0 78 0;
#X connect 10 0 11 0;
#X connect 11 0 13 0;
#X connect 12 0 11 0;
#X connect 13 0 10 1;
#X connect 14 0 12 0;
#X connect 14 1 22 0;
#X connect 15 0 10 0;
#X connect 16 0 17 0;
#X connect 18 0 60 0;
#X connect 18 0 63 0;
#X connect 18 0 76 0;
#X connect 20 0 23 0;
#X connect 20 1 21 0;
#X connect 20 2 19 0;
#X connect 22 0 11 0;
#X connect 24 0 26 0;
#X connect 24 1 25 0;
#X connect 25 0 14 0;
#X connect 25 0 18 0;
#X connect 26 0 14 0;
#X connect 26 0 18 0;
#X connect 27 0 8 0;
#X connect 28 0 30 0;
#X connect 28 0 33 0;
#X connect 29 0 38 0;
#X connect 31 0 32 0;
#X connect 33 0 31 0;
#X connect 34 0 29 0;
#X connect 34 0 9 0;
#X connect 34 0 44 0;
#X connect 34 0 45 0;
#X connect 34 0 48 0;
#X connect 35 0 36 0;
#X connect 36 0 37 0;
#X connect 36 1 40 0;
#X connect 37 0 6 0;
#X connect 38 0 28 0;
#X connect 38 0 39 0;
#X connect 38 0 74 0;
#X connect 39 0 4 1;
#X connect 40 0 37 0;
#X connect 44 0 47 0;
#X connect 45 0 46 0;
#X connect 46 0 3 0;
#X connect 47 0 0 0;
#X connect 48 0 49 0;
#X connect 49 0 2 0;
#X connect 50 0 34 0;
#X connect 50 0 81 0;
#X connect 50 1 34 0;
#X connect 51 0 54 0;
#X connect 52 0 53 0;
#X connect 53 0 59 0;
#X connect 54 0 55 0;
#X connect 55 0 56 0;
#X connect 56 0 57 0;
#X connect 58 0 38 1;
#X connect 59 0 51 0;
#X connect 60 0 20 0;
#X connect 61 0 64 0;
#X connect 62 0 35 0;
#X connect 63 0 4 0;
#X connect 64 0 62 0;
#X connect 65 0 66 0;
#X connect 67 0 68 0;
#X connect 68 0 69 0;
#X connect 68 1 70 0;
#X connect 69 0 75 0;
#X connect 70 0 69 0;
#X connect 71 0 77 0;
#X connect 72 0 67 0;
#X connect 73 0 71 0;
#X connect 74 0 73 1;
#X connect 75 0 65 0;
#X connect 76 0 73 0;
#X connect 77 0 72 0;
#X connect 78 0 24 0;
#X connect 80 0 81 1;
#X connect 81 0 79 0;
#X connect 81 0 79 1;
#X coords 0 -1 1 1 250 150 1 0 0;
#X restore 20 30 pd ui;
