#N canvas 1626 223 222 203 10;
#N canvas 577 248 765 572 ui 0;
#X obj 228 290 pack f f f;
#X obj 207 339 list;
#X obj 207 403 packOSC;
#N canvas 644 81 415 484 keyPoint 0;
#X obj 25 39 env~;
#X floatatom 25 61 5 0 0 0 - - -, f 5;
#X obj 26 127 / 100;
#X floatatom 26 149 5 0 0 0 - - -, f 5;
#X obj 26 323 sel 1;
#X obj 26 348 random 100;
#X obj 26 373 / 100;
#X floatatom 26 398 5 0 0 0 - - -, f 5;
#X obj 26 202 -;
#X obj 26 227 abs;
#X floatatom 26 252 5 0 0 0 - - -, f 5;
#X obj 25 10 inlet~;
#X obj 26 420 outlet;
#X obj 113 176 > 70;
#X obj 25 80 t f f;
#X obj 26 296 spigot;
#X obj 26 274 > 0.04;
#X obj 132 406 packOSC;
#X obj 132 432 s allOsc;
#X obj 130 265 f;
#X obj 131 229 r \$0-b;
#X obj 26 171 t f f f;
#X msg 132 376 send /low \$1;
#X obj 130 346 expr int($f1*100)/100;
#X obj 130 289 expr ($f1-0.4)/0.6;
#X obj 130 311 expr pow($f1 \, 2);
#X connect 0 0 1 0;
#X connect 1 0 14 0;
#X connect 2 0 3 0;
#X connect 3 0 21 0;
#X connect 4 0 5 0;
#X connect 5 0 6 0;
#X connect 6 0 7 0;
#X connect 7 0 12 0;
#X connect 8 0 9 0;
#X connect 9 0 10 0;
#X connect 10 0 16 0;
#X connect 11 0 0 0;
#X connect 13 0 15 1;
#X connect 14 0 2 0;
#X connect 14 1 13 0;
#X connect 15 0 4 0;
#X connect 16 0 15 0;
#X connect 17 0 18 0;
#X connect 19 0 24 0;
#X connect 20 0 19 0;
#X connect 21 0 8 1;
#X connect 21 1 8 0;
#X connect 21 2 19 1;
#X connect 22 0 17 0;
#X connect 23 0 22 0;
#X connect 24 0 25 0;
#X connect 25 0 23 0;
#X restore 228 89 pd keyPoint;
#X floatatom 228 114 5 0 0 0 - - -, f 5;
#N canvas 415 50 430 711 keyPoint 0;
#X obj 25 39 env~;
#X floatatom 25 61 5 0 0 0 - - -, f 5;
#X obj 25 88 / 100;
#X floatatom 25 110 5 0 0 0 - - -, f 5;
#X obj 25 263 sel 1;
#X obj 25 288 random 100;
#X obj 25 313 / 100;
#X floatatom 25 338 5 0 0 0 - - -, f 5;
#X obj 25 163 -;
#X obj 25 188 abs;
#X floatatom 25 213 5 0 0 0 - - -, f 5;
#X obj 25 10 inlet~;
#X obj 25 360 outlet;
#X obj 25 235 > 0.02;
#X obj 118 414 packOSC;
#X obj 118 440 s allOsc;
#X msg 118 384 send /middle \$1;
#X obj 110 229 f;
#X obj 115 193 r \$0-b;
#X obj 25 132 t f f f;
#X obj 114 343 expr int($f1*100)/100;
#X obj 111 264 expr ($f1-0.4)/0.6;
#X obj 130 311 expr pow($f1 \, 2);
#X connect 0 0 1 0;
#X connect 1 0 2 0;
#X connect 2 0 3 0;
#X connect 3 0 19 0;
#X connect 4 0 5 0;
#X connect 5 0 6 0;
#X connect 6 0 7 0;
#X connect 7 0 12 0;
#X connect 8 0 9 0;
#X connect 9 0 10 0;
#X connect 10 0 13 0;
#X connect 11 0 0 0;
#X connect 13 0 4 0;
#X connect 14 0 15 0;
#X connect 16 0 14 0;
#X connect 17 0 21 0;
#X connect 18 0 17 0;
#X connect 19 0 8 1;
#X connect 19 1 8 0;
#X connect 19 2 17 1;
#X connect 20 0 16 0;
#X connect 21 0 22 0;
#X connect 22 0 20 0;
#X restore 330 57 pd keyPoint;
#X floatatom 330 82 5 0 0 0 - - -, f 5;
#N canvas 655 102 430 711 keyPoint 0;
#X obj 25 39 env~;
#X floatatom 25 61 5 0 0 0 - - -, f 5;
#X obj 25 126 / 100;
#X floatatom 25 148 5 0 0 0 - - -, f 5;
#X obj 27 337 sel 1;
#X obj 27 362 random 100;
#X obj 27 387 / 100;
#X floatatom 27 412 5 0 0 0 - - -, f 5;
#X obj 25 201 -;
#X obj 25 226 abs;
#X floatatom 25 251 5 0 0 0 - - -, f 5;
#X obj 25 10 inlet~;
#X obj 27 434 outlet;
#X obj 25 273 > 0.02;
#X obj 25 81 t f f;
#X obj 26 304 spigot;
#X obj 112 137 > 70;
#X obj 156 399 packOSC;
#X obj 156 425 s allOsc;
#X obj 148 234 f;
#X obj 153 198 r \$0-b;
#X obj 25 170 t f f f;
#X msg 156 369 send /high \$1;
#X obj 156 337 expr int($f1*100)/100;
#X obj 153 265 expr ($f1-0.4)/0.6;
#X obj 159 290 expr pow($f1 \, 2);
#X connect 0 0 1 0;
#X connect 1 0 14 0;
#X connect 2 0 3 0;
#X connect 3 0 21 0;
#X connect 4 0 5 0;
#X connect 5 0 6 0;
#X connect 6 0 7 0;
#X connect 7 0 12 0;
#X connect 8 0 9 0;
#X connect 9 0 10 0;
#X connect 10 0 13 0;
#X connect 11 0 0 0;
#X connect 13 0 15 0;
#X connect 14 0 2 0;
#X connect 14 1 16 0;
#X connect 15 0 4 0;
#X connect 16 0 15 1;
#X connect 17 0 18 0;
#X connect 19 0 24 0;
#X connect 20 0 19 0;
#X connect 21 0 8 1;
#X connect 21 1 8 0;
#X connect 21 2 19 1;
#X connect 22 0 17 0;
#X connect 23 0 22 0;
#X connect 24 0 25 0;
#X connect 25 0 23 0;
#X restore 414 34 pd keyPoint;
#X floatatom 414 59 5 0 0 0 - - -, f 5;
#X obj 330 104 t b f;
#X obj 414 86 t b f;
#X obj 536 210 env~;
#X obj 207 312 r \$0-bb;
#X obj 330 1 hip~ 200;
#X obj 330 30 lop~ 2300;
#X obj 228 62 lop~ 150;
#X obj 536 248 / 100;
#X floatatom 536 273 5 0 0 0 - - -, f 5;
#X obj 450 379 f;
#X obj 450 350 r \$0-bbb;
#X obj 450 435 packOSC;
#X msg 450 403 send /vol \$1;
#X obj 289 316 loadbang;
#X msg 289 338 0 0 0;
#X obj 536 292 * 1;
#X obj 106 99 hsl 50 15 0 2 0 0 empty empty empty -2 -8 0 10 -262144
-1 -1 2450 1;
#X floatatom 581 273 5 0 0 0 - - -, f 5;
#X msg 165 70 1;
#X obj 169 46 loadbang;
#X floatatom 104 124 5 0 0 0 - - -, f 5;
#X msg 228 146 \$1 500;
#X obj 228 168 line;
#X msg 283 140 \$1 500;
#X obj 283 162 line;
#X msg 387 163 \$1 500;
#X obj 387 185 line;
#X obj 450 461 s allOsc;
#X obj 207 429 s allOsc;
#X obj 5 15 tgl 30 0 empty empty empty 17 7 0 10 -262144 -1 -1 1 1
;
#X obj 26 80 k_vol~;
#X obj -56 289 spigot;
#X obj 6 269 udpsend;
#X msg 6 244 disconnect;
#X obj -24 268 tgl 15 0 empty empty empty 17 7 0 10 -262144 -1 -1 0
1;
#X obj 6 194 sel 0 1;
#X obj -56 239 r allOsc;
#X obj 100 167 loadbang;
#X msg 100 189 \; pd dsp 1;
#X obj 53 299 tgl 15 0 empty empty empty 17 7 0 10 -262144 -1 -1 1
1;
#X obj 91 393 s \$0-bbb;
#X obj 53 340 t b b b;
#X obj 53 317 metro 50;
#X obj 72 367 s \$0-bb;
#X obj 102 79 bng 15 250 50 0 empty empty empty 17 7 0 10 -262144 -1
-1;
#X obj 136 80 bng 15 250 50 0 empty empty empty 17 7 0 10 -262144 -1
-1;
#X msg 199 71 2;
#X obj 228 -15 adc~;
#X msg 25 221 connect localhost 12000;
#X obj 180 241 expr int($f1*100)/100;
#X obj 257 207 expr int($f1*100)/100;
#X obj 369 249 expr int($f1*100)/100;
#X floatatom 103 10 5 0 0 0 - - -, f 5;
#X floatatom 104 30 5 0 0 0 - - -, f 5;
#X floatatom 103 52 5 0 0 0 - - -, f 5;
#X msg 207 373 send /chfft \$1 \$2 \$3;
#X obj 414 9 hip~ 2300;
#X obj 53 418 s \$0-b;
#X obj -72 107 metro 10000;
#X obj -72 131 t b b;
#X msg -44 153 0;
#X msg -68 177 1;
#X obj 137 302 loadbang;
#X connect 0 0 1 1;
#X connect 1 0 64 0;
#X connect 2 0 37 0;
#X connect 3 0 4 0;
#X connect 4 0 30 0;
#X connect 5 0 6 0;
#X connect 6 0 9 0;
#X connect 7 0 8 0;
#X connect 8 0 10 0;
#X connect 9 0 4 0;
#X connect 9 1 32 0;
#X connect 10 0 4 0;
#X connect 10 1 34 0;
#X connect 11 0 16 0;
#X connect 12 0 1 0;
#X connect 13 0 14 0;
#X connect 14 0 5 0;
#X connect 15 0 3 0;
#X connect 16 0 17 0;
#X connect 17 0 24 0;
#X connect 18 0 21 0;
#X connect 19 0 18 0;
#X connect 20 0 36 0;
#X connect 21 0 20 0;
#X connect 22 0 23 0;
#X connect 23 0 1 1;
#X connect 24 0 29 0;
#X connect 25 0 26 0;
#X connect 26 0 24 1;
#X connect 27 0 25 0;
#X connect 28 0 53 0;
#X connect 29 0 18 1;
#X connect 30 0 31 0;
#X connect 31 0 58 0;
#X connect 32 0 33 0;
#X connect 33 0 59 0;
#X connect 34 0 35 0;
#X connect 35 0 60 0;
#X connect 38 0 67 0;
#X connect 40 0 41 0;
#X connect 41 0 43 0;
#X connect 42 0 41 0;
#X connect 43 0 40 1;
#X connect 44 0 42 0;
#X connect 44 1 57 0;
#X connect 45 0 40 0;
#X connect 46 0 47 0;
#X connect 48 0 51 0;
#X connect 50 0 66 0;
#X connect 50 1 52 0;
#X connect 50 2 49 0;
#X connect 51 0 50 0;
#X connect 53 0 27 0;
#X connect 54 0 55 0;
#X connect 55 0 25 0;
#X connect 56 0 11 0;
#X connect 56 0 13 0;
#X connect 56 0 15 0;
#X connect 56 0 39 0;
#X connect 56 0 65 0;
#X connect 57 0 41 0;
#X connect 58 0 0 0;
#X connect 58 0 61 0;
#X connect 59 0 0 1;
#X connect 59 0 62 0;
#X connect 60 0 0 2;
#X connect 60 0 63 0;
#X connect 64 0 2 0;
#X connect 65 0 7 0;
#X connect 67 0 68 0;
#X connect 68 0 70 0;
#X connect 68 1 69 0;
#X connect 69 0 44 0;
#X connect 69 0 48 0;
#X connect 70 0 44 0;
#X connect 70 0 48 0;
#X connect 71 0 38 0;
#X coords 0 -1 1 1 170 150 1 0 0;
#X restore 20 30 pd ui;
